<mxfile host="app.diagrams.net" modified="2023-05-11T02:31:33.787Z" agent="Mozilla/5.0 (Macintosh; Intel Mac OS X 10_15_7) AppleWebKit/537.36 (KHTML, like Gecko) Chrome/112.0.0.0 Safari/537.36" version="21.2.9" etag="wq7MNsH8-sNpPliUvZll" type="github">
  <diagram name="第 1 页" id="mmZjBVgp-5ww0B1r9gcF">
    <mxGraphModel>
      <root>
        <mxCell id="0" />
        <mxCell id="1" parent="0" />
      </root>
    </mxGraphModel>
  </diagram>
</mxfile>
